<svg id="visual" viewBox="0 0 1920 90" width="1920" height="90" xmlns="http://www.w3.org/2000/svg" xmlns:xlink="http://www.w3.org/1999/xlink" version="1.1"><path d="M0 77L13.8 74.5C27.7 72 55.3 67 83.2 66.5C111 66 139 70 166.8 68.3C194.7 66.7 222.3 59.3 250.2 61.3C278 63.3 306 74.7 333.8 78.5C361.7 82.3 389.3 78.7 417.2 75.2C445 71.7 473 68.3 500.8 64.7C528.7 61 556.3 57 584.2 57.2C612 57.3 640 61.7 667.8 66.2C695.7 70.7 723.3 75.3 751.2 73.7C779 72 807 64 834.8 65.2C862.7 66.3 890.3 76.7 918.2 79.5C946 82.3 974 77.7 1001.8 74.7C1029.7 71.7 1057.3 70.3 1085.2 71.2C1113 72 1141 75 1168.8 74.3C1196.7 73.7 1224.3 69.3 1252.2 70.3C1280 71.3 1308 77.7 1335.8 75C1363.7 72.3 1391.3 60.7 1419.2 56C1447 51.3 1475 53.7 1502.8 54.3C1530.7 55 1558.3 54 1586.2 57.3C1614 60.7 1642 68.3 1669.8 73.8C1697.7 79.3 1725.3 82.7 1753.2 77.3C1781 72 1809 58 1836.8 52.2C1864.7 46.3 1892.3 48.7 1906.2 49.8L1920 51L1920 0L1906.2 0C1892.3 0 1864.7 0 1836.8 0C1809 0 1781 0 1753.2 0C1725.3 0 1697.7 0 1669.8 0C1642 0 1614 0 1586.2 0C1558.3 0 1530.7 0 1502.8 0C1475 0 1447 0 1419.2 0C1391.3 0 1363.7 0 1335.8 0C1308 0 1280 0 1252.2 0C1224.3 0 1196.7 0 1168.8 0C1141 0 1113 0 1085.2 0C1057.3 0 1029.7 0 1001.8 0C974 0 946 0 918.2 0C890.3 0 862.7 0 834.8 0C807 0 779 0 751.2 0C723.3 0 695.7 0 667.8 0C640 0 612 0 584.2 0C556.3 0 528.7 0 500.8 0C473 0 445 0 417.2 0C389.3 0 361.7 0 333.8 0C306 0 278 0 250.2 0C222.3 0 194.7 0 166.8 0C139 0 111 0 83.2 0C55.3 0 27.7 0 13.8 0L0 0Z" fill="#a594f9"></path><path d="M0 68L13.8 63.2C27.7 58.3 55.3 48.7 83.2 49.2C111 49.7 139 60.3 166.8 61.8C194.7 63.3 222.3 55.7 250.2 50.8C278 46 306 44 333.8 45.2C361.7 46.3 389.3 50.7 417.2 52.7C445 54.7 473 54.3 500.8 52.2C528.7 50 556.3 46 584.2 44.7C612 43.3 640 44.7 667.8 44.7C695.7 44.7 723.3 43.3 751.2 47.2C779 51 807 60 834.8 58.7C862.7 57.3 890.3 45.7 918.2 40.2C946 34.7 974 35.3 1001.8 41.2C1029.7 47 1057.3 58 1085.2 59.8C1113 61.7 1141 54.3 1168.8 49.8C1196.7 45.3 1224.3 43.7 1252.2 45.5C1280 47.3 1308 52.7 1335.8 56.5C1363.7 60.3 1391.3 62.7 1419.2 62C1447 61.3 1475 57.7 1502.8 53.2C1530.7 48.7 1558.3 43.3 1586.2 41.8C1614 40.3 1642 42.7 1669.8 45.3C1697.7 48 1725.3 51 1753.2 52.2C1781 53.3 1809 52.7 1836.8 55.2C1864.7 57.7 1892.3 63.3 1906.2 66.2L1920 69L1920 0L1906.2 0C1892.3 0 1864.7 0 1836.8 0C1809 0 1781 0 1753.2 0C1725.3 0 1697.7 0 1669.8 0C1642 0 1614 0 1586.2 0C1558.3 0 1530.7 0 1502.8 0C1475 0 1447 0 1419.2 0C1391.3 0 1363.7 0 1335.8 0C1308 0 1280 0 1252.2 0C1224.3 0 1196.7 0 1168.8 0C1141 0 1113 0 1085.2 0C1057.3 0 1029.7 0 1001.8 0C974 0 946 0 918.2 0C890.3 0 862.7 0 834.8 0C807 0 779 0 751.2 0C723.3 0 695.7 0 667.8 0C640 0 612 0 584.2 0C556.3 0 528.7 0 500.8 0C473 0 445 0 417.2 0C389.3 0 361.7 0 333.8 0C306 0 278 0 250.2 0C222.3 0 194.7 0 166.8 0C139 0 111 0 83.2 0C55.3 0 27.7 0 13.8 0L0 0Z" fill="#8977ee"></path><path d="M0 29L13.8 32.2C27.7 35.3 55.3 41.7 83.2 43.2C111 44.7 139 41.3 166.8 38.3C194.7 35.3 222.3 32.7 250.2 34.8C278 37 306 44 333.8 45.7C361.7 47.3 389.3 43.7 417.2 38C445 32.3 473 24.7 500.8 25.5C528.7 26.3 556.3 35.7 584.2 36C612 36.3 640 27.7 667.8 23.5C695.7 19.3 723.3 19.7 751.2 20.5C779 21.3 807 22.7 834.8 21.8C862.7 21 890.3 18 918.2 17.5C946 17 974 19 1001.8 23.7C1029.7 28.3 1057.3 35.7 1085.2 35.8C1113 36 1141 29 1168.8 24.2C1196.7 19.3 1224.3 16.7 1252.2 18.7C1280 20.7 1308 27.3 1335.8 28.2C1363.7 29 1391.3 24 1419.2 24C1447 24 1475 29 1502.8 29.5C1530.7 30 1558.3 26 1586.2 23.3C1614 20.7 1642 19.3 1669.8 18C1697.7 16.7 1725.3 15.3 1753.2 19.2C1781 23 1809 32 1836.8 33.3C1864.7 34.7 1892.3 28.3 1906.2 25.2L1920 22L1920 0L1906.2 0C1892.3 0 1864.7 0 1836.8 0C1809 0 1781 0 1753.2 0C1725.3 0 1697.7 0 1669.8 0C1642 0 1614 0 1586.2 0C1558.3 0 1530.7 0 1502.8 0C1475 0 1447 0 1419.2 0C1391.3 0 1363.7 0 1335.8 0C1308 0 1280 0 1252.2 0C1224.3 0 1196.7 0 1168.8 0C1141 0 1113 0 1085.2 0C1057.3 0 1029.7 0 1001.8 0C974 0 946 0 918.2 0C890.3 0 862.7 0 834.8 0C807 0 779 0 751.2 0C723.3 0 695.7 0 667.8 0C640 0 612 0 584.2 0C556.3 0 528.7 0 500.8 0C473 0 445 0 417.2 0C389.3 0 361.7 0 333.8 0C306 0 278 0 250.2 0C222.3 0 194.7 0 166.8 0C139 0 111 0 83.2 0C55.3 0 27.7 0 13.8 0L0 0Z" fill="#6b5be2"></path><path d="M0 16L13.8 19.2C27.7 22.3 55.3 28.7 83.2 26.5C111 24.3 139 13.7 166.8 12.5C194.7 11.3 222.3 19.7 250.2 24.7C278 29.7 306 31.3 333.8 31.8C361.7 32.3 389.3 31.7 417.2 26.2C445 20.7 473 10.3 500.8 6C528.7 1.7 556.3 3.3 584.2 5C612 6.7 640 8.3 667.8 9.8C695.7 11.3 723.3 12.7 751.2 12C779 11.3 807 8.7 834.8 8.7C862.7 8.7 890.3 11.3 918.2 12.2C946 13 974 12 1001.8 10.2C1029.7 8.3 1057.3 5.7 1085.2 5.5C1113 5.3 1141 7.7 1168.8 7.2C1196.7 6.7 1224.3 3.3 1252.2 7.3C1280 11.3 1308 22.7 1335.8 24.3C1363.7 26 1391.3 18 1419.2 15.7C1447 13.3 1475 16.7 1502.8 17.2C1530.7 17.7 1558.3 15.3 1586.2 17.3C1614 19.3 1642 25.7 1669.8 24.7C1697.7 23.7 1725.3 15.3 1753.2 15.3C1781 15.3 1809 23.7 1836.8 26.5C1864.7 29.3 1892.3 26.7 1906.2 25.3L1920 24L1920 0L1906.2 0C1892.3 0 1864.7 0 1836.8 0C1809 0 1781 0 1753.2 0C1725.3 0 1697.7 0 1669.8 0C1642 0 1614 0 1586.2 0C1558.3 0 1530.7 0 1502.8 0C1475 0 1447 0 1419.2 0C1391.3 0 1363.7 0 1335.8 0C1308 0 1280 0 1252.2 0C1224.3 0 1196.7 0 1168.8 0C1141 0 1113 0 1085.2 0C1057.3 0 1029.7 0 1001.8 0C974 0 946 0 918.2 0C890.3 0 862.7 0 834.8 0C807 0 779 0 751.2 0C723.3 0 695.7 0 667.8 0C640 0 612 0 584.2 0C556.3 0 528.7 0 500.8 0C473 0 445 0 417.2 0C389.3 0 361.7 0 333.8 0C306 0 278 0 250.2 0C222.3 0 194.7 0 166.8 0C139 0 111 0 83.2 0C55.3 0 27.7 0 13.8 0L0 0Z" fill="#483ed5"></path></svg>